<svg width="32" height="32" viewBox="0 0 32 32" fill="none" xmlns="http://www.w3.org/2000/svg">
    <path d="M7.92133 7.92145C8.27132 7.57146 8.83877 7.57146 9.18876 7.92145L23.7642 22.4969C24.1142 22.8469 24.1142 23.4143 23.7642 23.7643C23.4142 24.1143 22.8468 24.1143 22.4968 23.7643L7.92133 9.18888C7.57134 8.83889 7.57134 8.27144 7.92133 7.92145Z" fill="#ed1c24"/>
    <path d="M23.7642 7.92145C24.1142 8.27144 24.1142 8.83889 23.7642 9.18888L9.18876 23.7643C8.83877 24.1143 8.27132 24.1143 7.92133 23.7643C7.57133 23.4143 7.57133 22.8469 7.92133 22.4969L22.4968 7.92145C22.8468 7.57146 23.4142 7.57146 23.7642 7.92145Z" fill="#ed1c24"/>
</svg>
