<svg width="14" height="18" viewBox="0 0 14 18" fill="none" xmlns="http://www.w3.org/2000/svg">
    <path d="M5.49617 1.08655H8.50383V1.59274H9.59V1.01569C9.59013 0.455658 9.13485 0 8.57522 0H5.42478C4.86515 0 4.40987 0.455658 4.40987 1.01569V1.59274H5.49617V1.08655Z" fill="#005CB9"/>
    <path d="M12.0984 5.89746H1.90156C1.62216 5.89746 1.40221 6.13586 1.42473 6.41451L2.27721 16.9581C2.32472 17.5467 2.81556 18 3.40526 18H10.5946C11.1843 18 11.6751 17.5467 11.7227 16.9579L12.5751 6.41451C12.5978 6.13586 12.3778 5.89746 12.0984 5.89746ZM4.3706 16.8754C4.3592 16.8761 4.34781 16.8765 4.33655 16.8765C4.05179 16.8765 3.81276 16.6547 3.79504 16.3666L3.26082 7.71089C3.24242 7.41138 3.4702 7.15361 3.76951 7.13521C4.06786 7.11708 4.32666 7.34436 4.34506 7.64401L4.87915 16.2997C4.89769 16.5992 4.66991 16.8569 4.3706 16.8754ZM7.54919 16.3332C7.54919 16.6332 7.30604 16.8764 7.00604 16.8764C6.70604 16.8764 6.46289 16.6332 6.46289 16.3332V7.67738C6.46289 7.37732 6.70604 7.13411 7.00604 7.13411C7.3059 7.13411 7.54919 7.37732 7.54919 7.67738V16.3332ZM10.7392 7.70938L10.2291 16.3651C10.2122 16.6538 9.97278 16.8764 9.68748 16.8764C9.67677 16.8764 9.66592 16.8761 9.65508 16.8755C9.35563 16.8578 9.12716 16.6008 9.14487 16.3012L9.6548 7.64539C9.67237 7.34587 9.92857 7.11736 10.2288 7.13507C10.5283 7.15265 10.7568 7.40987 10.7392 7.70938Z" fill="#005CB9"/>
    <path d="M13.9767 4.22095L13.62 3.15143C13.5259 2.86949 13.262 2.67929 12.9648 2.67929H1.03507C0.73796 2.67929 0.473935 2.86949 0.380023 3.15143L0.0233222 4.22095C-0.0454642 4.42722 0.0440543 4.6376 0.211146 4.74252C0.279246 4.78523 0.35984 4.81091 0.448398 4.81091H13.5516C13.6402 4.81091 13.7209 4.78523 13.7889 4.74239C13.9559 4.63747 14.0455 4.42708 13.9767 4.22095Z" fill="#005CB9"/>
</svg>
