<svg width="23" height="20" viewBox="0 0 23 20" fill="none" xmlns="http://www.w3.org/2000/svg">
    <path d="M11.6475 7.05912C10.3518 7.05912 9.3014 8.10124 9.3014 9.3868C9.3014 10.6723 10.3518 11.7145 11.6475 11.7145C12.9432 11.7145 13.9937 10.6724 13.9937 9.3868C13.9937 8.10124 12.9433 7.05912 11.6475 7.05912ZM11.6475 10.606C10.9688 10.606 10.4186 10.0601 10.4186 9.38675C10.4186 8.71336 10.9688 8.16748 11.6475 8.16748C12.3263 8.16748 12.8765 8.71336 12.8765 9.38675C12.8765 10.0601 12.3263 10.606 11.6475 10.606Z" fill="#2F3741"/>
    <path d="M21.0041 1.7387L5.75435 0.0206998C5.1625 -0.062784 4.56284 0.108639 4.10651 0.491795C3.65023 0.842809 3.35776 1.36312 3.29654 1.93271L3.01727 4.20497H2.15138C0.922453 4.20497 0.000754793 5.28565 0.000754793 6.50491V17.8384C-0.0301984 19.0011 0.894708 19.9686 2.06665 19.9993C2.09488 20 2.12316 20.0002 2.15138 19.9998H17.4849C18.7138 19.9998 19.831 19.0577 19.831 17.8384V17.395C20.212 17.322 20.5735 17.171 20.8924 16.9517C21.3449 16.5737 21.6347 16.0384 21.7023 15.4553L22.9871 4.20497C23.1181 2.98289 22.2342 1.88355 21.0041 1.7387ZM18.7138 17.8384C18.7138 18.448 18.0994 18.8914 17.4849 18.8914H2.15138C1.59631 18.9076 1.13314 18.4742 1.11683 17.9235C1.11598 17.8952 1.11635 17.8668 1.11796 17.8384V15.7879L5.44712 12.6289C5.96718 12.2327 6.69968 12.268 7.17879 12.712L10.2232 15.3722C10.6855 15.7573 11.2674 15.9726 11.8711 15.9818C12.343 15.9875 12.8072 15.8628 13.2117 15.6216L18.7139 12.4626V17.8384H18.7138ZM18.7138 11.1602L12.6251 14.6794C12.1023 14.9867 11.4405 14.9311 10.9772 14.5409L7.90493 11.853C7.0244 11.1023 5.73741 11.0563 4.8047 11.7421L1.11796 14.4023V6.50491C1.11796 5.89528 1.53692 5.31338 2.15138 5.31338H17.4849C18.1414 5.34038 18.6716 5.85444 18.7138 6.50491V11.1602ZM21.871 4.05535C21.8706 4.05901 21.8703 4.06272 21.8699 4.06638L20.5572 15.3168C20.5594 15.6085 20.4254 15.8848 20.1941 16.0649C20.0824 16.1758 19.831 16.2312 19.831 16.2866V6.50491C19.7869 5.24252 18.7577 4.23356 17.4849 4.20497H4.13442L4.38579 2.04357C4.44031 1.76368 4.58781 1.51004 4.80475 1.32308C5.0497 1.15505 5.34587 1.07671 5.64268 1.10138L20.8645 2.84711C21.4787 2.90498 21.9293 3.44592 21.871 4.05535Z" fill="#2F3741"/>
</svg>
