<svg width="20" height="18" viewBox="0 0 20 18" fill="none" xmlns="http://www.w3.org/2000/svg">
    <path d="M10.3615 15.0565C9.77993 15.0472 9.21925 14.8294 8.77383 14.4398L5.84076 11.749C5.37922 11.2998 4.67344 11.2642 4.1724 11.6649L0.00154865 14.8602V16.9344C-0.0284274 17.4908 0.38037 17.9672 0.914532 17.9984C0.942035 18 0.969642 18.0004 0.997198 17.9996H15.7702C16.3622 17.9996 16.9542 17.5511 16.9542 16.9344V11.4967L11.6531 14.6921C11.2634 14.9361 10.8162 15.0623 10.3615 15.0565Z" fill="white"/>
    <path d="M10.1462 9.61872C10.8001 9.61872 11.3302 9.06654 11.3302 8.38539C11.3302 7.70425 10.8001 7.15207 10.1462 7.15207C9.49228 7.15207 8.96218 7.70425 8.96218 8.38539C8.96218 9.06654 9.49228 9.61872 10.1462 9.61872Z" fill="white"/>
    <path d="M19.7527 2.19082C19.5809 1.94704 19.3156 1.79349 19.0262 1.77036L4.3608 0.00450354C4.0749 -0.0204441 3.78956 0.0587981 3.55356 0.228764C3.34455 0.417829 3.20245 0.67444 3.14991 0.957555L2.90774 3.14388H15.7702C16.9965 3.17285 17.9881 4.19339 18.0306 5.47033V15.3648C18.0306 15.3088 18.2727 15.2527 18.3804 15.1406C18.6032 14.9583 18.7324 14.6788 18.7302 14.3838L19.9949 3.00369C20.0228 2.70973 19.9355 2.41653 19.7527 2.19082Z" fill="white"/>
    <path d="M15.7702 4.26502H0.997198C0.405196 4.26502 0.00154865 4.85362 0.00154865 5.47028V13.4588L3.55351 10.7679C4.45516 10.0712 5.70252 10.1297 6.5404 10.9081L9.50036 13.5989C9.94671 13.9936 10.5842 14.0499 11.088 13.739L16.9541 10.1793V5.47028C16.9134 4.81225 16.4026 4.29232 15.7702 4.26502ZM10.1462 10.7399C8.89785 10.7399 7.88583 9.68573 7.88583 8.38534C7.88583 7.08501 8.8978 6.03082 10.1462 6.03082C11.3945 6.03082 12.4065 7.08495 12.4065 8.38534C12.4065 9.68573 11.3946 10.7399 10.1462 10.7399Z" fill="white"/>
</svg>
