<svg width="16" height="19" viewBox="0 0 16 19" fill="none" xmlns="http://www.w3.org/2000/svg">
    <path d="M15.3663 17.7742H14.099V2.75806C14.099 2.41959 13.8153 2.14516 13.4653 2.14516H8.71287V0.612903C8.71287 0.274427 8.42919 0 8.07921 0H3.68317C3.33323 0 3.0495 0.274427 3.0495 0.612903V2.14516H2.53465C2.18471 2.14516 1.90099 2.41959 1.90099 2.75806V17.7742H0.633663C0.283723 17.7742 0 18.0486 0 18.3871C0 18.7256 0.283723 19 0.633663 19H15.3663C15.7163 19 16 18.7256 16 18.3871C16 18.0486 15.7163 17.7742 15.3663 17.7742ZM4.31683 1.22581H7.44554V2.14516H4.31683V1.22581ZM6.73267 17.7742V15.1694H9.26733V17.7742H6.73267ZM10.5347 17.7742V15.1694H10.8119C11.1619 15.1694 11.4455 14.8949 11.4455 14.5565C11.4455 14.218 11.1619 13.9435 10.8119 13.9435C8.60776 13.9435 7.22962 13.9435 5.18812 13.9435C4.83818 13.9435 4.55446 14.218 4.55446 14.5565C4.55446 14.8949 4.83818 15.1694 5.18812 15.1694H5.46535V17.7742H3.16832V3.37097H12.8317V17.7742H10.5347ZM7.08911 5.17137C7.08911 5.50985 6.80539 5.78427 6.45545 5.78427H5.74257C5.39263 5.78427 5.10891 5.50985 5.10891 5.17137C5.10891 4.8329 5.39263 4.55847 5.74257 4.55847H6.45545C6.80539 4.55847 7.08911 4.8329 7.08911 5.17137ZM10.8515 5.17137C10.8515 5.50985 10.5678 5.78427 10.2178 5.78427H9.50495C9.15497 5.78427 8.87129 5.50985 8.87129 5.17137C8.87129 4.8329 9.15497 4.55847 9.50495 4.55847H10.2178C10.5678 4.55847 10.8515 4.8329 10.8515 5.17137ZM7.08911 7.46976C7.08911 7.80823 6.80539 8.08266 6.45545 8.08266H5.74257C5.39263 8.08266 5.10891 7.80823 5.10891 7.46976C5.10891 7.13128 5.39263 6.85685 5.74257 6.85685H6.45545C6.80539 6.85685 7.08911 7.13128 7.08911 7.46976ZM10.8515 7.46976C10.8515 7.80823 10.5678 8.08266 10.2178 8.08266H9.50495C9.15497 8.08266 8.87129 7.80823 8.87129 7.46976C8.87129 7.13128 9.15497 6.85685 9.50495 6.85685H10.2178C10.5678 6.85685 10.8515 7.13128 10.8515 7.46976ZM7.08911 9.76814C7.08911 10.1066 6.80539 10.381 6.45545 10.381H5.74257C5.39263 10.381 5.10891 10.1066 5.10891 9.76814C5.10891 9.42967 5.39263 9.15524 5.74257 9.15524H6.45545C6.80539 9.15524 7.08911 9.42967 7.08911 9.76814ZM10.8515 9.76814C10.8515 10.1066 10.5678 10.381 10.2178 10.381H9.50495C9.15497 10.381 8.87129 10.1066 8.87129 9.76814C8.87129 9.42967 9.15497 9.15524 9.50495 9.15524H10.2178C10.5678 9.15524 10.8515 9.42967 10.8515 9.76814ZM7.08911 12.0665C7.08911 12.405 6.80539 12.6794 6.45545 12.6794H5.74257C5.39263 12.6794 5.10891 12.405 5.10891 12.0665C5.10891 11.7281 5.39263 11.4536 5.74257 11.4536H6.45545C6.80539 11.4536 7.08911 11.7281 7.08911 12.0665ZM10.8515 12.0665C10.8515 12.405 10.5678 12.6794 10.2178 12.6794H9.50495C9.15497 12.6794 8.87129 12.405 8.87129 12.0665C8.87129 11.7281 9.15497 11.4536 9.50495 11.4536H10.2178C10.5678 11.4536 10.8515 11.7281 10.8515 12.0665Z" fill="#2F3741"/>
</svg>
