<svg width="16" height="19" viewBox="0 0 16 19" fill="none" xmlns="http://www.w3.org/2000/svg">
    <path d="M15.3486 17.7742H14.099V2.75806C14.099 2.41955 13.8153 2.14516 13.4654 2.14516H8.71287V0.612903C8.71287 0.274389 8.42919 0 8.07921 0H3.68317C3.33319 0 3.0495 0.274389 3.0495 0.612903V2.14516H2.53465C2.18467 2.14516 1.90099 2.41955 1.90099 2.75806V17.7742H0.651441C0.310134 17.7742 0.0165889 18.028 0.000707691 18.3578C-0.0162428 18.7098 0.2735 19 0.633659 19H5.14851C5.32348 19 5.46534 18.8628 5.46534 18.6935V15.1694H5.20602C4.86483 15.1694 4.57125 14.9157 4.55517 14.5861C4.53802 14.2341 4.828 13.9435 5.18812 13.9435C5.37944 13.9435 10.9523 13.9435 10.794 13.9435C11.1352 13.9435 11.4288 14.1972 11.4448 14.5268C11.462 14.8788 11.172 15.1694 10.8119 15.1694H10.5347V18.6935C10.5347 18.8628 10.6765 19 10.8515 19H15.3663C15.7265 19 16.0162 18.7098 15.9993 18.3578C15.9834 18.028 15.6899 17.7742 15.3486 17.7742ZM6.45544 12.6794H5.74257C5.39263 12.6794 5.10891 12.405 5.10891 12.0665C5.10891 11.7281 5.39263 11.4536 5.74257 11.4536H6.45544C6.80539 11.4536 7.08911 11.7281 7.08911 12.0665C7.08911 12.405 6.80539 12.6794 6.45544 12.6794ZM6.45544 10.381H5.74257C5.39263 10.381 5.10891 10.1066 5.10891 9.76814C5.10891 9.42967 5.39263 9.15524 5.74257 9.15524H6.45544C6.80539 9.15524 7.08911 9.42967 7.08911 9.76814C7.08911 10.1066 6.80539 10.381 6.45544 10.381ZM6.45544 8.08266H5.74257C5.39263 8.08266 5.10891 7.80823 5.10891 7.46976C5.10891 7.13128 5.39263 6.85685 5.74257 6.85685H6.45544C6.80539 6.85685 7.08911 7.13128 7.08911 7.46976C7.08911 7.80823 6.80539 8.08266 6.45544 8.08266ZM6.45544 5.78427H5.74257C5.39263 5.78427 5.10891 5.50985 5.10891 5.17137C5.10891 4.8329 5.39263 4.55847 5.74257 4.55847H6.45544C6.80539 4.55847 7.08911 4.8329 7.08911 5.17137C7.08911 5.50985 6.80539 5.78427 6.45544 5.78427ZM10.2178 12.6794H9.50495C9.15497 12.6794 8.87129 12.405 8.87129 12.0665C8.87129 11.7281 9.15497 11.4536 9.50495 11.4536H10.2178C10.5678 11.4536 10.8515 11.7281 10.8515 12.0665C10.8515 12.405 10.5678 12.6794 10.2178 12.6794ZM10.2178 10.381H9.50495C9.15497 10.381 8.87129 10.1066 8.87129 9.76814C8.87129 9.42967 9.15497 9.15524 9.50495 9.15524H10.2178C10.5678 9.15524 10.8515 9.42967 10.8515 9.76814C10.8515 10.1066 10.5678 10.381 10.2178 10.381ZM10.2178 8.08266H9.50495C9.15497 8.08266 8.87129 7.80823 8.87129 7.46976C8.87129 7.13128 9.15497 6.85685 9.50495 6.85685H10.2178C10.5678 6.85685 10.8515 7.13128 10.8515 7.46976C10.8515 7.80823 10.5678 8.08266 10.2178 8.08266ZM10.2178 5.78427H9.50495C9.15497 5.78427 8.87129 5.50985 8.87129 5.17137C8.87129 4.8329 9.15497 4.55847 9.50495 4.55847H10.2178C10.5678 4.55847 10.8515 4.8329 10.8515 5.17137C10.8515 5.50985 10.5678 5.78427 10.2178 5.78427ZM6.73267 18.6935V15.4758C6.73267 15.3066 6.87453 15.1694 7.0495 15.1694H8.9505C9.12547 15.1694 9.26733 15.3066 9.26733 15.4758V18.6935C9.26733 18.8628 9.12547 19 8.9505 19H7.0495C6.87453 19 6.73267 18.8628 6.73267 18.6935Z" fill="white"/>
</svg>
