<svg width="23" height="17" viewBox="0 0 23 17" fill="none" xmlns="http://www.w3.org/2000/svg">
    <path d="M21.9312 7.68524L20.4558 7.05447L19.2029 4.64606C18.8643 3.98662 18.1774 3.57566 17.4276 3.58044H15.2702V2.97834C15.2702 1.88882 14.3898 1 13.2869 1H2.97375C1.87084 1 1.00013 1.8936 1.00013 2.97834V12.201C0.990454 12.8652 1.5274 13.41 2.19978 13.4195C2.20462 13.4195 2.20946 13.4195 2.21913 13.4195H2.47551C2.47551 13.4673 2.47067 13.4864 2.47067 13.5151C2.46583 14.8818 3.58325 15.9952 4.96672 16C6.35019 16.0048 7.47728 14.9009 7.48212 13.5342C7.48212 13.5247 7.48212 13.5199 7.48212 13.5103C7.48212 13.4769 7.48212 13.4626 7.47728 13.4148H15.812C15.812 13.4626 15.812 13.4817 15.812 13.5103C15.8071 14.877 16.9245 15.9904 18.308 15.9952C19.6915 16 20.8186 14.8961 20.8234 13.5295C20.8234 13.5199 20.8234 13.5151 20.8234 13.5056C20.8234 13.4721 20.8234 13.4578 20.8234 13.41H21.4474C22.1198 13.41 22.6664 12.87 22.6664 12.2058C22.6664 12.201 22.6664 12.1962 22.6664 12.1867V8.79388C22.6761 8.32557 22.3859 7.88117 21.9312 7.68524ZM4.98123 15.049C4.12987 15.049 3.44297 14.3705 3.44297 13.5295C3.44297 12.6884 4.12987 12.0099 4.98123 12.0099C5.8326 12.0099 6.5195 12.6884 6.5195 13.5295C6.5195 14.3657 5.82776 15.049 4.98123 15.049ZM14.3027 12.4734H7.24993C6.8436 11.5989 5.95353 11.0398 4.98123 11.0446C4.0041 11.0398 3.11887 11.5941 2.71254 12.4734H2.21913C2.06917 12.4734 1.96759 12.3587 1.96759 12.2106V9.74959H14.3027V12.4734ZM14.3027 8.79388H1.96759V2.98311C1.96759 2.42402 2.40779 1.9605 2.97375 1.9605H13.2869C13.8529 1.96527 14.3076 2.42402 14.3027 2.97834V8.79388ZM15.2702 4.54093H17.4276C17.8098 4.53615 18.1677 4.74163 18.3467 5.08091L19.3142 6.93023H15.2702V4.54093ZM18.3225 15.049C17.4712 15.049 16.7843 14.3705 16.7843 13.5295C16.7843 12.6884 17.4712 12.0099 18.3225 12.0099C19.1739 12.0099 19.8608 12.6884 19.8608 13.5295C19.8608 14.3657 19.1739 15.049 18.3225 15.049ZM21.7038 12.2106C21.7038 12.3587 21.6022 12.4734 21.4523 12.4734H20.5912C20.0059 11.2357 18.516 10.7005 17.2632 11.2787C16.7311 11.5224 16.3005 11.9477 16.0538 12.4734H15.2702V7.88594H20.0107L21.549 8.55495C21.6458 8.60273 21.7086 8.70786 21.7038 8.81299V12.2106Z" fill="#2F3741" stroke="#2F3741" stroke-width="0.25"/>
</svg>
