<svg width="27" height="19" viewBox="0 0 27 19" fill="none" xmlns="http://www.w3.org/2000/svg">
    <path d="M1.96155 1.96154H16.3846V14.4615H1.96155V1.96154Z" fill="white"/>
    <path d="M1.96155 1.96154H16.3846V14.4615H1.96155V1.96154Z" fill="white"/>
    <path d="M16.3846 4.84616H21.1923L22.6346 7.73077H16.3846V4.84616Z" fill="white"/>
    <path d="M16.3846 4.84616H21.1923L22.6346 7.73077H16.3846V4.84616Z" fill="white"/>
    <path d="M17.3462 8.69231H25.0385V14.4615H17.3462V8.69231Z" fill="white"/>
    <path d="M17.3462 8.69231H25.0385V14.4615H17.3462V8.69231Z" fill="white"/>
    <path d="M23.1154 15.4231C23.1154 16.4852 22.2544 17.3462 21.1923 17.3462C20.1302 17.3462 19.2692 16.4852 19.2692 15.4231C19.2692 14.361 20.1302 13.5 21.1923 13.5C22.2544 13.5 23.1154 14.361 23.1154 15.4231Z" fill="white"/>
    <path d="M23.1154 15.4231C23.1154 16.4852 22.2544 17.3462 21.1923 17.3462C20.1302 17.3462 19.2692 16.4852 19.2692 15.4231C19.2692 14.361 20.1302 13.5 21.1923 13.5C22.2544 13.5 23.1154 14.361 23.1154 15.4231Z" fill="white"/>
    <path d="M7.73078 15.4231C7.73078 16.4852 6.86979 17.3462 5.8077 17.3462C4.74562 17.3462 3.88462 16.4852 3.88462 15.4231C3.88462 14.361 4.74562 13.5 5.8077 13.5C6.86979 13.5 7.73078 14.361 7.73078 15.4231Z" fill="white"/>
    <path d="M7.73078 15.4231C7.73078 16.4852 6.86979 17.3462 5.8077 17.3462C4.74562 17.3462 3.88462 16.4852 3.88462 15.4231C3.88462 14.361 4.74562 13.5 5.8077 13.5C6.86979 13.5 7.73078 14.361 7.73078 15.4231Z" fill="white"/>
    <path d="M25.1513 8.71374L23.449 7.98593L22.0034 5.20699C21.6127 4.4461 20.8201 3.97191 19.955 3.97743H17.4656V3.28269C17.4656 2.02556 16.4498 1 15.1772 1H3.2774C2.00482 1 1.00015 2.03107 1.00015 3.28269V13.9242C0.988985 14.6907 1.60853 15.3192 2.38436 15.3302C2.38994 15.3302 2.39553 15.3302 2.40669 15.3302H2.70251C2.70251 15.3854 2.69693 15.4074 2.69693 15.4405C2.69135 17.0175 3.98067 18.3022 5.57699 18.3077C7.1733 18.3132 8.47379 17.0395 8.47937 15.4626C8.47937 15.4515 8.47937 15.446 8.47937 15.435C8.47937 15.3964 8.47937 15.3799 8.47379 15.3247H18.0907C18.0907 15.3799 18.0907 15.4019 18.0907 15.435C18.0851 17.0119 19.3745 18.2966 20.9708 18.3022C22.5671 18.3077 23.8676 17.034 23.8732 15.4571C23.8732 15.446 23.8732 15.4405 23.8732 15.4295C23.8732 15.3909 23.8732 15.3744 23.8732 15.3192H24.5932C25.369 15.3192 25.9997 14.6962 25.9997 13.9298C25.9997 13.9242 25.9997 13.9187 25.9997 13.9077V9.99293C26.0109 9.45259 25.676 8.93981 25.1513 8.71374ZM5.59373 17.2104C4.61139 17.2104 3.81881 16.4275 3.81881 15.4571C3.81881 14.4866 4.61139 13.7037 5.59373 13.7037C6.57608 13.7037 7.36865 14.4866 7.36865 15.4571C7.36865 16.422 6.5705 17.2104 5.59373 17.2104ZM16.3493 14.2385H8.21146C7.74261 13.2295 6.71561 12.5844 5.59373 12.5899C4.46627 12.5844 3.44485 13.224 2.976 14.2385H2.40669C2.23366 14.2385 2.11645 14.1062 2.11645 13.9353V11.0957H16.3493V14.2385ZM16.3493 9.99293H2.11645V3.28821C2.11645 2.6431 2.62437 2.10826 3.2774 2.10826H15.1772C15.8302 2.11378 16.3549 2.6431 16.3493 3.28269V9.99293ZM17.4656 5.08569H19.955C20.3959 5.08018 20.8089 5.31727 21.0154 5.70875L22.1317 7.84257H17.4656V5.08569ZM20.9875 17.2104C20.0052 17.2104 19.2126 16.4275 19.2126 15.4571C19.2126 14.4866 20.0052 13.7037 20.9875 13.7037C21.9699 13.7037 22.7625 14.4866 22.7625 15.4571C22.7625 16.422 21.9699 17.2104 20.9875 17.2104ZM24.889 13.9353C24.889 14.1062 24.7718 14.2385 24.5988 14.2385H23.6053C22.9299 12.8105 21.2108 12.1929 19.7652 12.8601C19.1512 13.1413 18.6545 13.632 18.3698 14.2385H17.4656V8.94532H22.9355L24.7104 9.71725C24.822 9.77238 24.8946 9.89369 24.889 10.015V13.9353Z" fill="#005CB9" stroke="#005CB9" stroke-width="0.288462"/>
</svg>
