<svg width="24" height="24" viewBox="0 0 24 24" fill="none" xmlns="http://www.w3.org/2000/svg">
    <circle cx="12" cy="12" r="12" fill="white"/>
    <path d="M20.4853 3.51469C18.2188 1.24823 15.2053 0 12 0C8.79469 0 5.78123 1.24823 3.51469 3.51469C1.24823 5.78123 0 8.79469 0 12C0 15.2053 1.24823 18.2188 3.51469 20.4853C5.78123 22.7518 8.79469 24 12 24C15.2053 24 18.2188 22.7518 20.4853 20.4853C22.7518 18.2188 24 15.2053 24 12C24 8.79469 22.7518 5.78123 20.4853 3.51469ZM19.4909 19.4909C17.49 21.4918 14.8297 22.5938 12 22.5938C9.1703 22.5938 6.51 21.4918 4.50909 19.4909C2.50819 17.49 1.40625 14.8297 1.40625 12C1.40625 9.1703 2.50819 6.51 4.50909 4.50909C6.51 2.50819 9.1703 1.40625 12 1.40625C14.8297 1.40625 17.49 2.50819 19.4909 4.50909C21.4918 6.51 22.5938 9.1703 22.5938 12C22.5938 14.8297 21.4918 17.49 19.4909 19.4909Z" fill="#005CB9"/>
    <path d="M12 3.20869C7.15247 3.20869 3.20869 7.15247 3.20869 12C3.20869 16.8475 7.15247 20.7913 12 20.7913C16.8475 20.7913 20.7913 16.8475 20.7913 12C20.7913 7.15247 16.8475 3.20869 12 3.20869ZM8.96498 12.1918L4.63688 11.4286C4.67414 10.9441 4.75866 10.4726 4.88531 10.0185L9.2138 10.7817C9.04992 11.155 8.95833 11.5669 8.95833 12C8.95828 12.0645 8.961 12.1283 8.96498 12.1918ZM10.3645 12C10.3645 11.0982 11.0982 10.3645 12 10.3645C12.9018 10.3645 13.6355 11.0982 13.6355 12C13.6355 12.9018 12.9018 13.6355 12 13.6355C11.0982 13.6355 10.3645 12.9018 10.3645 12ZM14.7863 10.7818L19.1147 10.0185C19.2413 10.4727 19.3259 10.9442 19.3631 11.4287L15.035 12.1919C15.039 12.1284 15.0417 12.0645 15.0417 12C15.0417 11.5669 14.9501 11.155 14.7863 10.7818ZM12 4.61494C14.8795 4.61494 17.3791 6.27173 18.5964 8.68195L13.7748 9.53212C13.2749 9.17156 12.6621 8.95828 12 8.95828C11.3379 8.95828 10.7251 9.17156 10.2252 9.53208L5.40366 8.68191C6.62095 6.27173 9.12047 4.61494 12 4.61494ZM4.66547 12.8617L9.48731 13.7119C9.60183 13.8795 9.73289 14.0348 9.87774 14.1761V19.0738C7.10264 18.2396 5.01014 15.8138 4.66547 12.8617ZM11.284 19.3502V14.9558C11.5138 15.0115 11.7534 15.0417 12 15.0417C12.2466 15.0417 12.4862 15.0115 12.7159 14.9558V19.3502C12.4803 19.373 12.2415 19.3851 12 19.3851C11.7585 19.3851 11.5197 19.373 11.284 19.3502ZM14.1222 19.0738V14.1761C14.267 14.0348 14.3981 13.8795 14.5126 13.712L19.3345 12.8617C18.9898 15.8139 16.8973 18.2397 14.1222 19.0738Z" fill="#005CB9"/>
</svg>
