<svg width="20" height="20" viewBox="0 0 20 20" fill="none" xmlns="http://www.w3.org/2000/svg">
    <path d="M17.0711 2.92891C15.1823 1.0402 12.6711 0 10 0C7.32891 0 4.8177 1.0402 2.92891 2.92891C1.0402 4.8177 0 7.32891 0 10C0 12.6711 1.0402 15.1823 2.92891 17.0711C4.8177 18.9598 7.32891 20 10 20C12.6711 20 15.1823 18.9598 17.0711 17.0711C18.9598 15.1823 20 12.6711 20 10C20 7.32891 18.9598 4.8177 17.0711 2.92891ZM16.2424 16.2424C14.575 17.9098 12.3581 18.8281 10 18.8281C7.64191 18.8281 5.425 17.9098 3.75758 16.2424C2.09016 14.575 1.17188 12.3581 1.17188 10C1.17188 7.64191 2.09016 5.425 3.75758 3.75758C5.425 2.09016 7.64191 1.17188 10 1.17188C12.3581 1.17188 14.575 2.09016 16.2424 3.75758C17.9098 5.425 18.8281 7.64191 18.8281 10C18.8281 12.3581 17.9098 14.575 16.2424 16.2424Z" fill="#2F3741"/>
    <path d="M10 2.67391C5.96039 2.67391 2.67391 5.96039 2.67391 10C2.67391 14.0396 5.96039 17.3261 10 17.3261C14.0396 17.3261 17.3261 14.0396 17.3261 10C17.3261 5.96039 14.0396 2.67391 10 2.67391ZM7.47082 10.1598L3.86406 9.52387C3.89512 9.12008 3.96555 8.72719 4.07109 8.34875L7.67816 8.98477C7.5416 9.29582 7.46527 9.6391 7.46527 10C7.46523 10.0537 7.4675 10.1069 7.47082 10.1598ZM8.63711 10C8.63711 9.24852 9.24848 8.63711 10 8.63711C10.7515 8.63711 11.3629 9.24848 11.3629 10C11.3629 10.7515 10.7515 11.3629 10 11.3629C9.24848 11.3629 8.63711 10.7515 8.63711 10ZM12.3219 8.9848L15.9289 8.34879C16.0345 8.72723 16.1049 9.12016 16.1359 9.52394L12.5292 10.1599C12.5325 10.107 12.5348 10.0538 12.5348 10C12.5348 9.6391 12.4584 9.29586 12.3219 8.9848ZM10 3.84578C12.3996 3.84578 14.4826 5.22645 15.497 7.23496L11.479 7.94344C11.0624 7.64297 10.5517 7.46523 10 7.46523C9.44828 7.46523 8.93762 7.64297 8.52102 7.9434L4.50305 7.23492C5.51746 5.22645 7.60039 3.84578 10 3.84578ZM3.88789 10.718L7.90609 11.4266C8.00152 11.5662 8.11074 11.6957 8.23145 11.8134V15.8948C5.91887 15.1997 4.17512 13.1782 3.88789 10.718ZM9.40336 16.1252V12.4632C9.59484 12.5096 9.79449 12.5348 10 12.5348C10.2055 12.5348 10.4052 12.5096 10.5966 12.4632V16.1252C10.4002 16.1442 10.2013 16.1542 10 16.1542C9.79871 16.1542 9.59973 16.1442 9.40336 16.1252ZM11.7685 15.8948V11.8134C11.8892 11.6957 11.9984 11.5663 12.0938 11.4266L16.1121 10.7181C15.8248 13.1783 14.0811 15.1997 11.7685 15.8948Z" fill="#2F3741"/>
</svg>
