<svg width="16" height="20" viewBox="0 0 16 20" fill="none" xmlns="http://www.w3.org/2000/svg">
    <path d="M15.6697 15.9161C15.6102 15.878 15.1629 15.568 14.715 14.6303C13.8924 12.9084 13.7197 10.4827 13.7197 8.75098C13.7197 8.74344 13.7195 8.73598 13.7193 8.72848C13.7103 6.43984 12.3247 4.46695 10.342 3.58176V2.22797C10.342 0.999453 9.33319 0 8.09318 0H7.90681C6.6668 0 5.65798 0.999453 5.65798 2.22797V3.58168C3.66862 4.46973 2.2803 6.45269 2.2803 8.75098C2.2803 10.4827 2.10764 12.9083 1.28503 14.6303C0.837136 15.568 0.389794 15.8779 0.330317 15.9161C0.0798499 16.0308 -0.0436461 16.2956 0.0139748 16.564C0.0721486 16.8351 0.328303 17.022 0.608035 17.022H4.95022C4.97446 18.6681 6.3328 20 8.00002 20C9.66723 20 11.0256 18.6681 11.0498 17.022H15.392C15.6717 17.022 15.9279 16.8351 15.9861 16.564C16.0436 16.2956 15.9201 16.0307 15.6697 15.9161ZM6.84282 2.22797C6.84282 1.64668 7.32014 1.17379 7.90685 1.17379H8.09322C8.67993 1.17379 9.15725 1.64668 9.15725 2.22797V3.20129C8.78333 3.12484 8.39625 3.08461 7.99986 3.08461C7.60358 3.08461 7.21662 3.1248 6.84286 3.20117L6.84282 2.22797ZM8.00002 18.8262C6.9861 18.8262 6.15907 18.0209 6.13502 17.022H9.86497C9.84096 18.0208 9.01393 18.8262 8.00002 18.8262ZM10.3854 15.8481C10.3853 15.8481 1.95812 15.8481 1.95812 15.8481C2.0606 15.6902 2.1649 15.5113 2.26857 15.3091C3.06255 13.7606 3.46515 11.5541 3.46515 8.75098C3.46515 6.27375 5.49941 4.2584 7.99982 4.2584C10.5002 4.2584 12.5345 6.27375 12.5345 8.75293C12.5345 8.76016 12.5346 8.76734 12.5349 8.77453C12.5371 11.5664 12.9397 13.765 13.7315 15.3091C13.8351 15.5113 13.9395 15.6902 14.0419 15.8481H10.3854Z" fill="#2F3741"/>
</svg>
