<svg width="16" height="23" viewBox="0 0 16 23" fill="none" xmlns="http://www.w3.org/2000/svg">
    <path fill-rule="evenodd" clip-rule="evenodd" d="M10.0105 0.0596476V0H9.97169C9.98488 0.0197082 9.99782 0.0395922 10.0105 0.0596476ZM5.07013 0H5.03132V0.0596283C5.04401 0.0395794 5.05695 0.0197018 5.07013 0ZM7.40496 0.216332C6.67462 0.216332 6.08046 0.804985 6.08046 1.52857L6.08051 2.74001C6.54577 2.64495 7.02745 2.59491 7.52074 2.59491C8.01417 2.59491 8.496 2.645 8.96146 2.74016V1.52857C8.96146 0.804985 8.36729 0.216332 7.63695 0.216332H7.40496ZM5.19939 19.9441C5.22933 21.1875 6.25882 22.19 7.52094 22.19C8.78305 22.19 9.81254 21.1875 9.84243 19.9441H5.19939ZM0 18.4829H10.4903H15.0419C14.9143 18.2863 14.7845 18.0637 14.6554 17.812C13.6698 15.8898 13.1687 13.153 13.1659 9.67771C13.1656 9.66876 13.1654 9.65982 13.1654 9.65082C13.1654 6.56475 10.6332 4.05604 7.52069 4.05604C4.40819 4.05604 1.87594 6.56475 1.87594 9.64839C1.87594 13.1377 1.37479 15.8843 0.386457 17.812C0.257408 18.0636 0.127573 18.2863 0 18.4829Z" fill="white"/>
</svg>
