<svg width="19" height="17" viewBox="0 0 19 17" fill="none" xmlns="http://www.w3.org/2000/svg">
    <path d="M18.7028 2.6802C18.4482 2.3518 18.0693 2.16364 17.6637 2.16364H3.18165L3.05232 1.19865C2.96074 0.515332 2.39192 0 1.72919 0H0.59375C0.265852 0 0 0.276752 0 0.618182C0 0.959611 0.265852 1.23636 0.59375 1.23636H1.72919C1.80281 1.23636 1.86605 1.29362 1.87618 1.36954L2.0762 2.86203C2.07642 2.86377 2.07638 2.86547 2.07661 2.8672L3.23665 11.5217C3.23676 11.5225 3.23694 11.5232 3.23705 11.524L3.4789 13.3286C3.57052 14.0119 4.13933 14.5273 4.80207 14.5273H5.44588C5.37997 14.7208 5.34375 14.9287 5.34375 15.1455C5.34375 16.168 6.14283 17 7.12501 17C8.10718 17 8.90626 16.168 8.90626 15.1455C8.90626 14.9287 8.87004 14.7208 8.80413 14.5273H11.9771C11.9112 14.7208 11.875 14.9287 11.875 15.1455C11.875 16.168 12.6741 17 13.6563 17C14.6384 17 15.4375 16.168 15.4375 15.1455C15.4375 14.9287 15.4013 14.7208 15.3354 14.5273H16.625C16.9529 14.5273 17.2188 14.2505 17.2188 13.9091C17.2188 13.5677 16.9529 13.2909 16.625 13.2909H4.80207C4.72844 13.2909 4.66521 13.2337 4.65508 13.1577L4.5072 12.0545H16.2005C16.8261 12.0545 17.3754 11.5921 17.5071 10.955L18.97 3.84625C19.0549 3.43323 18.9577 3.00861 18.7028 2.6802Z" fill="white"/>
</svg>
