<svg width="20" height="18" viewBox="0 0 20 18" fill="none" xmlns="http://www.w3.org/2000/svg">
    <path d="M19.6872 2.8379C19.4189 2.49026 19.0201 2.29091 18.5933 2.29091H3.34908L3.21295 1.26916C3.11654 0.545645 2.51779 0 1.82018 0H0.624996C0.279842 0 0 0.293073 0 0.654545C0 1.01602 0.279842 1.30909 0.624996 1.30909H1.82018C1.89768 1.30909 1.96424 1.36972 1.97491 1.4501L3.66197 14.1127C3.75837 14.8362 4.35712 15.3818 5.05473 15.3818H5.73242C5.66305 15.5867 5.62492 15.8069 5.62492 16.0364C5.62492 17.1191 6.46605 18 7.49991 18C8.53377 18 9.37489 17.1191 9.37489 16.0364C9.37489 15.8069 9.33677 15.5867 9.26739 15.3818H12.6074C12.538 15.5867 12.4999 15.8069 12.4999 16.0364C12.4999 17.1191 13.341 18 14.3749 18C15.4087 18 16.2498 17.1191 16.2498 16.0364C16.2498 15.8069 16.2117 15.5867 16.1423 15.3818H17.4999C17.845 15.3818 18.1249 15.0887 18.1249 14.7273C18.1249 14.3658 17.845 14.0727 17.4999 14.0727H5.05477C4.97727 14.0727 4.91071 14.0121 4.90004 13.9317L4.74442 12.7636H17.053C17.7115 12.7636 18.2898 12.2742 18.4282 11.5994L19.9684 4.0723C20.0579 3.63535 19.9554 3.18543 19.6872 2.8379ZM8.12494 16.0364C8.12494 16.3973 7.84455 16.6909 7.49995 16.6909C7.15534 16.6909 6.87495 16.3973 6.87495 16.0364C6.87495 15.6755 7.15534 15.3818 7.49995 15.3818C7.84455 15.3818 8.12494 15.6754 8.12494 16.0364ZM14.9999 16.0364C14.9999 16.3973 14.7195 16.6909 14.3749 16.6909C14.0303 16.6909 13.7499 16.3973 13.7499 16.0364C13.7499 15.6755 14.0303 15.3818 14.3749 15.3818C14.7195 15.3818 14.9999 15.6754 14.9999 16.0364ZM18.7462 3.79788L17.206 11.3249C17.1906 11.4 17.1262 11.4545 17.053 11.4545H4.56997L3.52349 3.59996H18.5932C18.6551 3.59996 18.6936 3.63301 18.715 3.66075C18.7363 3.68845 18.7591 3.73471 18.7462 3.79788Z" fill="#2F3741"/>
</svg>
