<svg width="23" height="20" viewBox="0 0 23 20" fill="none" xmlns="http://www.w3.org/2000/svg">
    <path d="M1.93375 17.2943V10.09H18.5748V17.2943C18.5748 17.7002 18.2617 18.0229 17.8862 18.0229H2.62231C2.24692 18.0229 1.93375 17.7002 1.93375 17.2943ZM18.5748 9.09182H1.93375V7.2829C1.93375 6.87693 2.24692 6.5543 2.62231 6.5543H17.8862C18.2616 6.5543 18.5748 6.87694 18.5748 7.2829V9.09182ZM4.65901 1.33628L4.659 1.33628C4.31186 1.64501 4.0999 2.07636 4.06067 2.55021L3.76293 5.48717H2.62231C1.67387 5.48717 0.91 6.29697 0.91 7.2829V17.2943C0.91 18.2802 1.67387 19.09 2.62231 19.09H17.8862C18.8347 19.09 19.5986 18.2802 19.5986 17.2943V15.7685L20.0424 15.8074L20.0424 15.8074C20.0906 15.8117 20.1387 15.8138 20.1864 15.8138C21.0706 15.8138 21.8176 15.0997 21.8917 14.167L22.684 4.19039C22.7218 3.71392 22.5808 3.24946 22.2863 2.88328L22.2161 2.93969L22.2863 2.88327C21.9915 2.51698 21.5774 2.29194 21.1203 2.2518L5.9094 0.916399C5.45221 0.876254 5.00794 1.026 4.65901 1.33628ZM20.1283 14.7441L20.1283 14.7441L19.5986 14.6976V7.2829C19.5986 6.29697 18.8347 5.48717 17.8862 5.48717H4.79241L5.07932 2.65694L5.07933 2.65684L5.08038 2.64488C5.1125 2.24058 5.44952 1.94683 5.82344 1.97978L5.82346 1.97978L21.0344 3.31518L21.0423 3.22552L21.0344 3.31518C21.2165 3.33115 21.3824 3.42055 21.5018 3.56905C21.6214 3.71772 21.6792 3.90677 21.6637 4.10229L20.8714 14.0789C20.8393 14.4832 20.502 14.777 20.1283 14.7441ZM16.8993 13.0385H12.8391C12.5522 13.0385 12.3272 13.2817 12.3272 13.5721V16.3572C12.3272 16.6476 12.5522 16.8908 12.8391 16.8908H16.8993C17.1862 16.8908 17.4112 16.6476 17.4112 16.3572V13.5721C17.4112 13.2817 17.1862 13.0385 16.8993 13.0385ZM16.3874 15.8236H13.3509V14.1056H16.3874V15.8236Z" fill="#2F3741" stroke="#2F3741" stroke-width="0.18"/>
</svg>
