<svg width="26" height="22" viewBox="0 0 26 22" fill="none" xmlns="http://www.w3.org/2000/svg">
    <rect x="5.17188" y="1" width="19.1979" height="14.0167" rx="1" transform="rotate(5.17202 5.17188 1)" fill="white"/>
    <rect x="2" y="7" width="19" height="13" fill="white"/>
    <path d="M2.0375 19.1047V11.1H20.5276V19.1047C20.5276 19.5558 20.1796 19.9143 19.7625 19.9143H2.80257C2.38547 19.9143 2.0375 19.5558 2.0375 19.1047ZM20.5276 9.99091H2.0375V7.98101C2.0375 7.52993 2.38547 7.17145 2.80257 7.17145H19.7625C20.1796 7.17145 20.5276 7.52993 20.5276 7.98101V9.99091ZM5.06556 1.37364L5.06556 1.37365C4.67985 1.71668 4.44434 2.19595 4.40074 2.72245L4.06992 5.98575H2.80257C1.74874 5.98575 0.9 6.88552 0.9 7.98101V19.1047C0.9 20.2002 1.74874 21.1 2.80257 21.1H19.7625C20.8164 21.1 21.6651 20.2002 21.6651 19.1047V17.4094L22.1582 17.4527L22.1582 17.4527C22.2118 17.4574 22.2652 17.4598 22.3182 17.4598C23.3007 17.4598 24.1306 16.6664 24.2129 15.63L25.0933 4.54488L24.9936 4.53697L25.0933 4.54487C25.1353 4.01547 24.9787 3.4994 24.6514 3.09253L24.5735 3.15521L24.6514 3.09252C24.3239 2.68554 23.8638 2.43549 23.3559 2.39089L6.45489 0.90711C5.9469 0.862505 5.45327 1.02889 5.06556 1.37364ZM22.2537 16.2712L22.2537 16.2712L21.6651 16.2195V7.98101C21.6651 6.88552 20.8164 5.98575 19.7625 5.98575H5.21379L5.53258 2.84105L5.53259 2.84092L5.53376 2.82765C5.56945 2.37842 5.94392 2.05204 6.35937 2.08864L6.3594 2.08864L23.2605 3.57242L23.2692 3.4728L23.2605 3.57242C23.4628 3.59017 23.6471 3.6895 23.7798 3.8545C23.9127 4.01969 23.9769 4.22974 23.9597 4.44699L23.0793 15.5321C23.0436 15.9813 22.6689 16.3078 22.2537 16.2712ZM18.6659 14.3761H14.1545C13.8357 14.3761 13.5858 14.6463 13.5858 14.969V18.0636C13.5858 18.3862 13.8357 18.6564 14.1545 18.6564H18.6659C18.9846 18.6564 19.2346 18.3862 19.2346 18.0636V14.969C19.2346 14.6463 18.9846 14.3761 18.6659 14.3761ZM18.0971 17.4707H14.7233V15.5618H18.0971V17.4707Z" fill="#005CB9" stroke="#005CB9" stroke-width="0.2"/>
</svg>
