<svg width="16" height="20" viewBox="0 0 16 20" fill="none" xmlns="http://www.w3.org/2000/svg">
    <path d="M0 13.48C0 16.7269 2.63179 19.3684 5.86667 19.3684C9.10155 19.3684 11.7333 16.7269 11.7333 13.48C11.7333 12.1469 11.2771 10.8048 10.4484 9.76658L5.86667 4.02293L1.28491 9.76658C0.456249 10.8048 0 12.1469 0 13.48Z" fill="white"/>
    <path d="M13.3333 6.99479C14.8037 6.99479 16 5.794 16 4.31821C16 3.70292 15.7984 3.12524 15.4172 2.64795L13.3333 0L11.2495 2.64795C10.8682 3.12524 10.6667 3.70292 10.6667 4.31821C10.6667 5.794 11.863 6.99479 13.3333 6.99479Z" fill="white"/>
</svg>
