<svg width="18" height="20" viewBox="0 0 18 20" fill="none" xmlns="http://www.w3.org/2000/svg">
    <path d="M11.0915 9.66873L11.0915 9.66885C11.9258 10.7223 12.3897 12.0927 12.3897 13.4549C12.3897 16.7661 9.72762 19.45 6.46986 19.45C3.21211 19.45 0.549987 16.7661 0.549987 13.4549C0.549987 12.0927 1.01396 10.7223 1.84818 9.66885L1.84827 9.66873L6.46986 3.82947L11.0915 9.66873ZM16.9237 3.28174L16.9262 3.28487C17.2688 3.71708 17.45 4.23848 17.45 4.79976C17.45 6.14238 16.3709 7.22482 15.0591 7.22482C13.7474 7.22482 12.6683 6.14238 12.6683 4.79976C12.6683 4.23848 12.8495 3.71708 13.1921 3.28487L13.1946 3.28173L15.0591 0.893689L16.9237 3.28173L16.9237 3.28174Z" stroke="#2F3741" stroke-width="1.1"/>
</svg>
