<svg width="23" height="24" viewBox="0 0 23 24" fill="none" xmlns="http://www.w3.org/2000/svg">
    <path d="M21.8911 12.3109C21.7946 12.1133 21.7946 11.8867 21.8911 11.6892L22.7851 9.85802C23.2828 8.83845 22.8884 7.62323 21.8872 7.09135L20.089 6.13605C19.895 6.03302 19.762 5.84965 19.7241 5.63313L19.3724 3.62555C19.1765 2.50778 18.1439 1.75666 17.0218 1.91561L15.0063 2.20108C14.7887 2.23183 14.5736 2.1618 14.4158 2.00894L12.9527 0.591831C12.1381 -0.197254 10.8619 -0.1973 10.0473 0.591831L8.58421 2.00908C8.42635 2.16198 8.21123 2.23187 7.99372 2.20122L5.97816 1.91575C4.85575 1.75671 3.82346 2.50792 3.62762 3.62569L3.27594 5.63318C3.23798 5.84974 3.10497 6.03307 2.91101 6.13614L1.11281 7.09144C0.11161 7.62328 -0.282768 8.8386 0.214979 9.85816L1.10893 11.6893C1.20537 11.8868 1.20537 12.1134 1.10893 12.311L0.214932 14.1421C-0.282815 15.1616 0.111563 16.3769 1.11277 16.9087L2.91097 17.864C3.10497 17.9671 3.23798 18.1504 3.27594 18.367L3.62762 20.3745C3.8059 21.3921 4.67733 22.1057 5.67886 22.1056C5.7775 22.1056 5.8776 22.0987 5.9782 22.0844L7.99377 21.799C8.21114 21.7681 8.4264 21.8382 8.58426 21.9911L10.0473 23.4082C10.4547 23.8028 10.9773 24 11.5 24C12.0226 24 12.5455 23.8027 12.9527 23.4082L14.4158 21.9911C14.5737 21.8382 14.7888 21.7684 15.0063 21.799L17.0218 22.0844C18.1444 22.2434 19.1765 21.4923 19.3724 20.3745L19.7241 18.367C19.7621 18.1504 19.8951 17.9671 20.089 17.864L21.8872 16.9087C22.8884 16.3769 23.2828 15.1616 22.7851 14.142L21.8911 12.3109ZM8.73501 5.77108C10.1326 5.77108 11.2696 6.90952 11.2696 8.30882C11.2696 9.70812 10.1326 10.8466 8.73501 10.8466C7.33746 10.8466 6.20044 9.70812 6.20044 8.30882C6.20044 6.90952 7.33746 5.77108 8.73501 5.77108ZM7.42678 17.057C7.29181 17.1922 7.1149 17.2598 6.93802 17.2598C6.76115 17.2598 6.58419 17.1922 6.44927 17.057C6.17933 16.7868 6.17933 16.3485 6.44927 16.0783L15.5732 6.94295C15.8431 6.67267 16.2808 6.67267 16.5507 6.94295C16.8207 7.21322 16.8207 7.65145 16.5507 7.92173L7.42678 17.057ZM14.2649 18.229C12.8674 18.229 11.7303 17.0906 11.7303 15.6913C11.7303 14.292 12.8674 13.1535 14.2649 13.1535C15.6624 13.1535 16.7995 14.292 16.7995 15.6913C16.7995 17.0906 15.6624 18.229 14.2649 18.229Z" fill="white"/>
    <path d="M14.2649 14.5378C13.6297 14.5378 13.1128 15.0552 13.1128 15.6913C13.1128 16.3273 13.6296 16.8448 14.2649 16.8448C14.9001 16.8448 15.4169 16.3273 15.4169 15.6913C15.4169 15.0552 14.9001 14.5378 14.2649 14.5378Z" fill="white"/>
    <path d="M8.73501 7.15529C8.09976 7.15529 7.58296 7.67273 7.58296 8.30877C7.58296 8.94481 8.09976 9.46231 8.73501 9.46231C9.37025 9.46231 9.8871 8.94486 9.8871 8.30877C9.88705 7.67278 9.37025 7.15529 8.73501 7.15529Z" fill="white"/>
</svg>
