<svg width="20" height="21" viewBox="0 0 20 21" fill="none" xmlns="http://www.w3.org/2000/svg">
    <path d="M19.0357 10.8355C18.9519 10.6637 18.9519 10.4667 19.0357 10.2949L19.8131 8.70263C20.2459 7.81605 19.903 6.75933 19.0324 6.29683L17.4687 5.46613C17.3 5.37654 17.1844 5.21708 17.1514 5.02881L16.8455 3.28308C16.6753 2.31111 15.7773 1.65797 14.8016 1.79619L13.0489 2.04442C12.8598 2.07116 12.6727 2.01026 12.5355 1.87734L11.2633 0.645072C10.5549 -0.0410889 9.44513 -0.0411296 8.73679 0.645072L7.46453 1.87746C7.32726 2.01042 7.1402 2.0712 6.95106 2.04454L5.1984 1.79631C4.22239 1.65801 3.32474 2.31123 3.15446 3.28321L2.84865 5.02885C2.81563 5.21716 2.69998 5.37658 2.53132 5.46621L0.967665 6.29691C0.0970518 6.75938 -0.245885 7.81617 0.186938 8.70275L0.964286 10.295C1.04815 10.4668 1.04815 10.6639 0.964286 10.8356L0.186897 12.4279C-0.245926 13.3145 0.0970109 14.3712 0.967624 14.8337L2.53128 15.6644C2.69998 15.754 2.81563 15.9134 2.84865 16.1017L3.15446 17.8474C3.30948 18.7323 4.06724 19.3528 4.93814 19.3527C5.02392 19.3527 5.11095 19.3467 5.19844 19.3343L6.9511 19.0861C7.14012 19.0592 7.3273 19.1202 7.46457 19.2531L8.73679 20.4854C9.09104 20.8285 9.54544 21 10 21C10.4544 21 10.9091 20.8284 11.2632 20.4854L12.5355 19.2531C12.6727 19.1202 12.8598 19.0595 13.0489 19.0861L14.8016 19.3343C15.7777 19.4725 16.6753 18.8194 16.8455 17.8474L17.1514 16.1017C17.1844 15.9134 17.3001 15.754 17.4687 15.6644L19.0324 14.8337C19.903 14.3712 20.2459 13.3144 19.8131 12.4278L19.0357 10.8355ZM18.4689 13.7704L16.9053 14.6011C16.4067 14.866 16.0648 15.3371 15.9673 15.8937L15.6615 17.6394C15.6039 17.9682 15.3003 18.1891 14.97 18.1424L13.2173 17.8942C12.6584 17.8149 12.1053 17.9951 11.6996 18.3879L10.4274 19.6202C10.1878 19.8523 9.81229 19.8523 9.57259 19.6202L8.30038 18.3879C7.95752 18.0558 7.50931 17.8759 7.0414 17.8759C6.95566 17.8759 6.86924 17.8819 6.78269 17.8942L5.03002 18.1424C4.70003 18.1891 4.39614 17.9682 4.33849 17.6393L4.03264 15.8936C3.9351 15.337 3.59322 14.8658 3.09465 14.601L1.531 13.7703C1.23643 13.6138 1.12041 13.2563 1.26684 12.9564L2.04423 11.3641C2.29207 10.8564 2.29207 10.2741 2.04423 9.76635L1.26684 8.17405C1.12041 7.87409 1.23643 7.51658 1.531 7.3601L3.09465 6.52941C3.59318 6.2645 3.9351 5.7934 4.0326 5.23677L4.33841 3.49108C4.39606 3.16223 4.69967 2.94131 5.02994 2.98802L6.78261 3.23625C7.34135 3.31545 7.89463 3.13541 8.3003 2.74252L9.57255 1.51025C9.81217 1.27816 10.1876 1.27816 10.4273 1.51025L11.6995 2.74252C12.1052 3.13545 12.6584 3.31545 13.2172 3.23625L14.9699 2.98802C15.2999 2.94127 15.6038 3.16223 15.6614 3.49108L15.9672 5.23681C16.0648 5.79344 16.4067 6.26459 16.9052 6.52941L18.4689 7.3601C18.7635 7.51658 18.8795 7.87409 18.733 8.17405L17.9557 9.76631C17.7078 10.274 17.7078 10.8564 17.9557 11.364L18.733 12.9563C18.8795 13.2563 18.7635 13.6139 18.4689 13.7704Z" fill="#2F3741"/>
    <path d="M14.3919 6.16778C14.1572 5.93275 13.7766 5.93275 13.5418 6.16778L5.60802 14.1116C5.37329 14.3466 5.37329 14.7277 5.60802 14.9627C5.72538 15.0802 5.87922 15.139 6.03302 15.139C6.18682 15.139 6.34071 15.0802 6.45803 14.9627L14.3919 7.01894C14.6267 6.78387 14.6267 6.40284 14.3919 6.16778Z" fill="#2F3741"/>
    <path d="M7.59566 5.14877C6.3804 5.14877 5.39169 6.13872 5.39169 7.3555C5.39169 8.57228 6.3804 9.56222 7.59566 9.56222C8.81092 9.56222 9.79963 8.57228 9.79963 7.3555C9.79963 6.13872 8.81092 5.14877 7.59566 5.14877ZM7.59566 8.35853C7.04327 8.35853 6.59388 7.90857 6.59388 7.35546C6.59388 6.80238 7.04327 6.35242 7.59566 6.35242C8.14804 6.35242 8.59748 6.80238 8.59748 7.35546C8.59744 7.90857 8.14804 8.35853 7.59566 8.35853Z" fill="#2F3741"/>
    <path d="M12.4043 11.5683C11.189 11.5683 10.2003 12.5582 10.2003 13.775C10.2003 14.9918 11.189 15.9817 12.4043 15.9817C13.6195 15.9817 14.6082 14.9918 14.6082 13.775C14.6082 12.5582 13.6195 11.5683 12.4043 11.5683ZM12.4043 14.778C11.8519 14.778 11.4024 14.3281 11.4024 13.775C11.4024 13.2219 11.8518 12.772 12.4043 12.772C12.9566 12.772 13.406 13.2219 13.406 13.775C13.406 14.3281 12.9566 14.778 12.4043 14.778Z" fill="#2F3741"/>
</svg>
