<svg width="16" height="19" viewBox="0 0 16 19" fill="none" xmlns="http://www.w3.org/2000/svg">
    <path fill-rule="evenodd" clip-rule="evenodd" d="M12.1245 4.52531C12.1245 5.76888 11.683 6.84531 10.8119 7.72505C9.94079 8.60494 8.87468 9.05091 7.64349 9.05091C7.04545 9.05091 6.48635 8.9456 5.96959 8.73644C5.78236 8.66066 5.60046 8.57111 5.42451 8.46812C5.22163 8.34936 5.02636 8.21256 4.83895 8.05782C4.71425 7.95488 4.59304 7.84399 4.47538 7.7252C3.60415 6.84545 3.16243 5.76888 3.16243 4.52531C3.16243 3.28203 3.60415 2.20546 4.47524 1.32571C5.34632 0.445966 6.41215 0 7.64349 0C8.87453 0 9.94051 0.445966 10.8117 1.32557C11.683 2.2056 12.1245 3.28217 12.1245 4.52531ZM4.8193 9.38793C4.99836 9.50574 5.19957 9.63695 5.41919 9.77912L5.57868 9.8822C5.82211 10.039 6.15226 10.186 6.55963 10.3189C6.95791 10.4489 7.36173 10.5148 7.76044 10.5148C8.15915 10.5148 8.56312 10.4489 8.96097 10.3189C9.36877 10.1858 9.69892 10.0389 9.94263 9.88206C10.2277 9.69814 10.483 9.53185 10.7013 9.38807C11.056 9.15484 11.2397 9.07614 11.4296 9.07614C11.9132 9.07614 12.3653 9.15871 12.7732 9.3217C13.1826 9.48555 13.5366 9.71018 13.8257 9.98957C14.1022 10.2566 14.3486 10.5812 14.5584 10.9539C14.7605 11.313 14.924 11.6877 15.0443 12.0672C15.1606 12.4343 15.2579 12.836 15.3334 13.2608C15.4082 13.6826 15.459 14.082 15.4841 14.4481C15.509 14.8059 15.5216 15.1793 15.5217 15.5579C15.5217 16.5391 15.213 17.3333 14.6041 17.9185C14.0027 18.4965 13.2074 18.7895 12.2399 18.7895H3.2818C2.31434 18.7895 1.51876 18.4963 0.917502 17.9185C0.30872 17.3329 0 16.5389 0 15.5581C0 15.1812 0.0124907 14.808 0.0371884 14.4485C0.0623118 14.0815 0.113126 13.682 0.187929 13.2608C0.263441 12.836 0.36067 12.4344 0.476919 12.0673C0.597285 11.6876 0.7608 11.313 0.962781 10.9539C1.17228 10.5813 1.41884 10.2569 1.69519 9.98972C1.98461 9.71004 2.33875 9.48541 2.74782 9.32184C3.15562 9.15871 3.60755 9.076 4.09129 9.076C4.14683 9.076 4.20185 9.08273 4.26077 9.09809C4.4033 9.13525 4.56863 9.22291 4.8193 9.38793Z" fill="white"/>
</svg>
