<svg width="15" height="18" viewBox="0 0 15 18" fill="none" xmlns="http://www.w3.org/2000/svg">
    <path fill-rule="evenodd" clip-rule="evenodd" d="M5.19149 9.36823C4.9811 9.23203 4.78834 9.10634 4.61681 8.99348C4.37667 8.83539 4.21829 8.75141 4.08174 8.71581C4.0253 8.7011 3.97259 8.69465 3.91938 8.69465C3.45598 8.69465 3.02303 8.77389 2.63237 8.93017C2.24048 9.08686 1.90122 9.30205 1.62397 9.56998C1.35922 9.82596 1.12303 10.1367 0.922328 10.4936C0.728834 10.8377 0.572189 11.1965 0.456881 11.5603C0.345516 11.912 0.252372 12.2966 0.180033 12.7037C0.108373 13.1071 0.0596937 13.4899 0.0356258 13.8414C0.0119659 14.1859 0 14.5433 0 14.9044C0 15.844 0.295749 16.6046 0.878952 17.1656C1.45495 17.7192 2.2171 18 3.14391 18H11.7257C12.6525 18 13.4143 17.7193 13.9905 17.1656C14.5738 16.605 14.8696 15.8442 14.8696 14.9042C14.8694 14.5415 14.8573 14.1838 14.8335 13.841C14.8095 13.4903 14.7608 13.1077 14.6891 12.7037C14.6168 12.2966 14.5236 11.9118 14.4121 11.5601C14.297 11.1966 14.1403 10.8377 13.9467 10.4936C13.7457 10.1366 13.5097 9.82568 13.2448 9.56984C12.9678 9.30219 12.6287 9.087 12.2365 8.93003C11.8457 8.77389 11.4126 8.69479 10.9494 8.69479C10.7674 8.69479 10.5915 8.77018 10.2517 8.99361C10.0425 9.13135 9.79792 9.29066 9.52488 9.46685C9.2914 9.61708 8.97512 9.75784 8.58446 9.88528C8.20332 10.0098 7.81633 10.073 7.43437 10.073C7.05242 10.073 6.66556 10.0098 6.28401 9.88528C5.89376 9.75798 5.57748 9.61722 5.34428 9.46698L5.19149 9.36823ZM5.93489 10.9547C5.49247 10.8104 5.07802 10.6337 4.735 10.4127L4.73425 10.4122C4.46173 10.2364 4.2141 10.0752 3.99843 9.93328C3.92547 9.88525 3.87112 9.8517 3.83035 9.82831L3.81822 9.82142C3.52594 9.83173 3.27013 9.88672 3.05022 9.97469C2.78093 10.0824 2.56861 10.2216 2.40596 10.3788C2.22754 10.5513 2.05599 10.7729 1.90293 11.0451C1.74591 11.3242 1.62057 11.6123 1.5294 11.8999C1.43453 12.1995 1.35241 12.5363 1.28768 12.9005C1.22191 13.2708 1.17888 13.6133 1.15798 13.9185C1.13617 14.2361 1.125 14.5678 1.125 14.9044C1.125 15.5915 1.33195 16.0404 1.65885 16.3548C1.99184 16.6747 2.45804 16.875 3.14391 16.875H11.7257C12.4118 16.875 12.8778 16.6746 13.2109 16.3545C13.5374 16.0407 13.7445 15.5918 13.7446 14.9042C13.7444 14.566 13.7331 14.2343 13.7112 13.9189L13.7112 13.918C13.6903 13.6137 13.6472 13.2711 13.5814 12.9001C13.5167 12.5358 13.4347 12.1995 13.3397 11.9001C13.2487 11.6128 13.1234 11.3245 12.9663 11.0455C12.8126 10.7724 12.6412 10.5509 12.4632 10.379C12.3008 10.2221 12.0884 10.0825 11.8185 9.97447C11.5985 9.88668 11.3426 9.83184 11.0505 9.82155L11.0381 9.82861C10.9973 9.85198 10.9433 9.8853 10.8705 9.93314C10.6577 10.0732 10.4101 10.2345 10.1349 10.4121L10.1337 10.4129C9.79074 10.6336 9.37613 10.8103 8.93336 10.9548C8.44524 11.1143 7.94065 11.198 7.43437 11.198C6.9279 11.198 6.42321 11.1141 5.93489 10.9547Z" fill="#2F3741"/>
    <path fill-rule="evenodd" clip-rule="evenodd" d="M10.3576 7.40047C11.1921 6.55769 11.6151 5.52649 11.6151 4.33517C11.6151 3.14426 11.1921 2.11293 10.3575 1.26987C9.52284 0.427228 8.50165 0 7.32233 0C6.14274 0 5.12169 0.427228 4.2872 1.27001C3.45271 2.11279 3.02955 3.14413 3.02955 4.33517C3.02955 5.52649 3.45271 6.55783 4.28734 7.40061C4.40005 7.51441 4.51617 7.62064 4.63563 7.71926C4.81517 7.86749 5.00224 7.99855 5.19659 8.11232C5.36515 8.21098 5.5394 8.29676 5.71877 8.36936C6.21381 8.56974 6.74942 8.67062 7.32233 8.67062C8.50179 8.67062 9.52311 8.24339 10.3576 7.40047ZM5.08669 6.60899C5.71143 7.23971 6.44541 7.54562 7.32233 7.54562C8.19972 7.54562 8.93369 7.23972 9.55811 6.60898C10.183 5.97792 10.4901 5.23156 10.4901 4.33517C10.4901 3.43935 10.1831 2.69292 9.55817 2.06155C8.93353 1.43101 8.19944 1.125 7.32233 1.125C6.44485 1.125 5.7111 1.43087 5.08662 2.06156C4.4617 2.69269 4.15455 3.43915 4.15455 4.33517C4.15455 5.23146 4.46176 5.97792 5.08669 6.60899Z" fill="#2F3741"/>
</svg>
