<svg width="64" height="73" viewBox="0 0 64 73" fill="none" xmlns="http://www.w3.org/2000/svg">
    <path d="M0.839844 50.8062C0.839844 63.0439 11.2025 73 23.9398 73C36.6772 73 47.0398 63.0439 47.0398 50.8062C47.0398 45.7818 45.2434 40.7235 41.9805 36.8104L23.9398 15.1625L5.89916 36.8104C2.63632 40.7235 0.839844 45.7818 0.839844 50.8062ZM13.4398 50.8062C13.4398 56.3685 18.1504 60.8943 23.9398 60.8943V64.9295C15.8351 64.9295 9.23984 58.593 9.23984 50.8062H13.4398Z" fill="#D2F4FF"/>
    <path d="M53.3398 26.3635C59.1293 26.3635 63.8398 21.8377 63.8398 16.2754C63.8398 13.9564 63.0462 11.7791 61.545 9.9802L53.3398 0L45.1347 9.9802C43.6335 11.7791 42.8398 13.9564 42.8398 16.2754C42.8398 21.8377 47.5504 26.3635 53.3398 26.3635Z" fill="#D2F4FF"/>
</svg>
