<svg width="124" height="121" viewBox="0 0 124 121" fill="none" xmlns="http://www.w3.org/2000/svg">
    <path d="M32.467 50.2296C32.467 62.3283 42.7121 72.1714 55.3048 72.1714C67.8976 72.1714 78.1426 62.3283 78.1426 50.2296C78.1426 45.2622 76.3666 40.2613 73.1407 36.3926L55.3048 14.9904L37.4689 36.3926C34.2431 40.2613 32.467 45.2622 32.467 50.2296ZM44.924 50.2296C44.924 55.7287 49.5811 60.2031 55.3048 60.2031V64.1926C47.2921 64.1926 40.7717 57.928 40.7717 50.2296H44.924Z" fill="#D2F4FF"/>
    <path d="M84.3711 26.0643C90.0948 26.0643 94.7519 21.5899 94.7519 16.0907C94.7519 13.798 93.9673 11.6454 92.4831 9.86692L84.3711 0L76.2591 9.86692C74.775 11.6454 73.9903 13.798 73.9903 16.0907C73.9903 21.5899 78.6474 26.0643 84.3711 26.0643Z" fill="#D2F4FF"/>
    <path d="M24.2667 98.5883L24.0373 98.3744L24.0372 98.3742C21.949 96.4299 19.2036 95.361 16.3152 95.361C10.1263 95.361 5.08548 100.278 5.08548 106.332C5.08548 112.386 10.1262 117.306 16.3152 117.306C17.3616 117.306 18.401 117.167 19.3992 116.89L19.4003 116.889C20.2865 116.638 21.1312 116.286 21.915 115.843L22.0364 115.774L22.0366 115.635L22.0479 109.208L22.0483 108.968H21.8085H17.3177L16.3307 106.237H27.3991V120.761H22.0329V119.792V119.44L21.7059 119.569C19.8112 120.314 17.7979 120.691 15.7053 120.691L24.2667 98.5883ZM24.2667 98.5883L24.4171 98.319C24.6565 97.8895 25.0615 97.1615 25.4067 96.5408L25.8514 95.7411L25.9384 95.5846L25.7872 95.4648L25.7863 95.4641C22.9861 93.2221 19.4058 91.9836 15.7052 91.9836C7.16152 91.9836 0.239408 98.4372 0.239408 106.335C0.239408 114.233 7.16147 120.687 15.7052 120.691L24.2667 98.5883ZM60.396 120.102L60.7099 120.004L60.396 120.102ZM60.396 120.102V91.9836H65.5788V115.829V116.089L65.8382 116.068C66.0135 116.053 66.1926 116.038 66.3754 116.024C66.762 115.995 67.16 115.98 67.5545 115.98C69.8989 115.98 72.0321 116.48 74.123 116.973L74.1231 116.973C76.1964 117.46 78.1835 117.927 80.3672 117.927C82.698 117.927 84.953 117.362 87.2535 116.205C87.4967 116.088 88.1862 115.804 89.2208 115.804C89.9248 115.804 90.6698 115.934 91.427 116.188C91.4271 116.188 91.4272 116.188 91.4274 116.188L91.8863 116.343L91.4803 116.6L91.473 116.604L91.4661 116.61C87.6079 119.456 84.0941 120.761 80.3784 120.761C78.1569 120.761 76.0713 120.304 74.0284 119.857L74.0049 119.852L60.396 120.102ZM66.4089 118.98L66.4121 118.98C66.7985 118.954 67.1931 118.939 67.5882 118.939C69.852 118.939 71.9758 119.404 74.0046 119.852L66.4089 118.98ZM66.4089 118.98C66.0438 119.01 65.6978 119.043 65.3608 119.076L65.3595 119.076M66.4089 118.98L65.3595 119.076M65.3595 119.076C63.6471 119.254 62.1682 119.547 60.7103 120.004L65.3595 119.076ZM80.2212 116.51L80.4623 116.508C82.0491 116.493 83.5697 116.198 85.104 115.602L85.1041 115.602L85.2543 115.544V105.171V104.932H85.4938H93.2357L93.404 104.926L93.4676 104.775C93.4677 104.774 93.4678 104.774 93.4679 104.774C93.5405 104.599 93.6131 104.424 93.6855 104.249C93.9383 103.639 94.1903 103.032 94.4401 102.421L94.4402 102.421L94.5701 102.105H85.5424H85.303V101.866V94.9907V94.7513H85.5424H97.8375L97.8987 94.6076L80.2212 116.51ZM80.2212 116.51V91.9836H98.982L98.65 92.7917L98.6499 92.7918L98.647 92.7989C98.401 93.3989 98.1481 94.0157 97.899 94.6068L80.2212 116.51ZM36.4507 118.028L36.4505 118.028C33.1769 115.719 31.5305 112.517 31.5451 108.492C31.5564 105.465 31.5526 99.9666 31.5489 95.3468V91.9836H36.9789L36.9899 109.597L36.9899 109.598C37.0014 111.832 37.7607 113.748 39.068 115.108C40.3761 116.47 42.2198 117.262 44.372 117.269H44.3728C47.0395 117.269 49.2878 116.495 50.8776 115.122C52.4703 113.747 53.3849 111.787 53.4022 109.455C53.4247 106.361 53.4209 98.3724 53.4135 92.214V91.9799H56.2354L56.2538 108.543L56.2538 108.545C56.2833 111.078 55.7448 113.246 54.6573 115.046C53.5699 116.846 51.9247 118.293 49.7162 119.371L49.7161 119.371C47.8895 120.264 46.0355 120.713 44.197 120.713C41.5866 120.713 38.9809 119.815 36.4507 118.028ZM94.9451 120.761L106.262 93.4223L106.263 93.4216L106.853 91.9836H111.124L123.064 120.761H117.483L116.803 119.127L116.582 119.219L116.803 119.127C116.622 118.69 116.43 118.231 116.236 117.765C115.7 116.478 115.143 115.142 114.712 114.096L114.651 113.948H114.491H100.986H100.826L100.765 114.095L97.9896 120.761H94.9451ZM113.114 111.026H113.472L113.335 110.695L107.958 97.6977L107.736 97.1632L107.515 97.6976L102.134 110.695L101.997 111.026H102.355H113.114Z" fill="#FF2D16"/>
    <path d="M24.2667 98.5883L24.0373 98.3744L24.0372 98.3742C21.949 96.4299 19.2036 95.361 16.3152 95.361C10.1263 95.361 5.08548 100.278 5.08548 106.332C5.08548 112.386 10.1262 117.306 16.3152 117.306C17.3616 117.306 18.401 117.167 19.3992 116.89L19.4003 116.889C20.2865 116.638 21.1312 116.286 21.915 115.843L22.0364 115.774L22.0366 115.635L22.0479 109.208L22.0483 108.968H21.8085H17.3177L16.3307 106.237H27.3991V120.761H22.0329V119.792V119.44L21.7059 119.569C19.8112 120.314 17.7979 120.691 15.7053 120.691L24.2667 98.5883ZM24.2667 98.5883L24.4171 98.319C24.6565 97.8895 25.0615 97.1615 25.4067 96.5408L25.8514 95.7411L25.9384 95.5846L25.7872 95.4648L25.7863 95.4641C22.9861 93.2221 19.4058 91.9836 15.7052 91.9836C7.16152 91.9836 0.239408 98.4372 0.239408 106.335C0.239408 114.233 7.16147 120.687 15.7052 120.691L24.2667 98.5883ZM60.396 120.102L60.7099 120.004L60.396 120.102ZM60.396 120.102V91.9836H65.5788V115.829V116.089L65.8382 116.068C66.0135 116.053 66.1926 116.038 66.3754 116.024C66.762 115.995 67.16 115.98 67.5545 115.98C69.8989 115.98 72.0321 116.48 74.123 116.973L74.1231 116.973C76.1964 117.46 78.1835 117.927 80.3672 117.927C82.698 117.927 84.953 117.362 87.2535 116.205C87.4967 116.088 88.1862 115.804 89.2208 115.804C89.9248 115.804 90.6698 115.934 91.427 116.188C91.4271 116.188 91.4272 116.188 91.4274 116.188L91.8863 116.343L91.4803 116.6L91.473 116.604L91.4661 116.61C87.6079 119.456 84.0941 120.761 80.3784 120.761C78.1569 120.761 76.0713 120.304 74.0284 119.857L74.0049 119.852L60.396 120.102ZM66.4089 118.98L66.4121 118.98C66.7985 118.954 67.1931 118.939 67.5882 118.939C69.852 118.939 71.9758 119.404 74.0046 119.852L66.4089 118.98ZM66.4089 118.98C66.0438 119.01 65.6978 119.043 65.3608 119.076L65.3595 119.076M66.4089 118.98L65.3595 119.076M65.3595 119.076C63.6471 119.254 62.1682 119.547 60.7103 120.004L65.3595 119.076ZM80.2212 116.51L80.4623 116.508C82.0491 116.493 83.5697 116.198 85.104 115.602L85.1041 115.602L85.2543 115.544V105.171V104.932H85.4938H93.2357L93.404 104.926L93.4676 104.775C93.4677 104.774 93.4678 104.774 93.4679 104.774C93.5405 104.599 93.6131 104.424 93.6855 104.249C93.9383 103.639 94.1903 103.032 94.4401 102.421L94.4402 102.421L94.5701 102.105H85.5424H85.303V101.866V94.9907V94.7513H85.5424H97.8375L97.8987 94.6076L80.2212 116.51ZM80.2212 116.51V91.9836H98.982L98.65 92.7917L98.6499 92.7918L98.647 92.7989C98.401 93.3989 98.1481 94.0157 97.899 94.6068L80.2212 116.51ZM36.4507 118.028L36.4505 118.028C33.1769 115.719 31.5305 112.517 31.5451 108.492C31.5564 105.465 31.5526 99.9666 31.5489 95.3468V91.9836H36.9789L36.9899 109.597L36.9899 109.598C37.0014 111.832 37.7607 113.748 39.068 115.108C40.3761 116.47 42.2198 117.262 44.372 117.269H44.3728C47.0395 117.269 49.2878 116.495 50.8776 115.122C52.4703 113.747 53.3849 111.787 53.4022 109.455C53.4247 106.361 53.4209 98.3724 53.4135 92.214V91.9799H56.2354L56.2538 108.543L56.2538 108.545C56.2833 111.078 55.7448 113.246 54.6573 115.046C53.5699 116.846 51.9247 118.293 49.7162 119.371L49.7161 119.371C47.8895 120.264 46.0355 120.713 44.197 120.713C41.5866 120.713 38.9809 119.815 36.4507 118.028ZM94.9451 120.761L106.262 93.4223L106.263 93.4216L106.853 91.9836H111.124L123.064 120.761H117.483L116.803 119.127L116.582 119.219L116.803 119.127C116.622 118.69 116.43 118.231 116.236 117.765C115.7 116.478 115.143 115.142 114.712 114.096L114.651 113.948H114.491H100.986H100.826L100.765 114.095L97.9896 120.761H94.9451ZM113.114 111.026H113.472L113.335 110.695L107.958 97.6977L107.736 97.1632L107.515 97.6976L102.134 110.695L101.997 111.026H102.355H113.114Z" fill="url(#paint0_linear)"/>
    <path d="M24.2667 98.5883L24.0373 98.3744L24.0372 98.3742C21.949 96.4299 19.2036 95.361 16.3152 95.361C10.1263 95.361 5.08548 100.278 5.08548 106.332C5.08548 112.386 10.1262 117.306 16.3152 117.306C17.3616 117.306 18.401 117.167 19.3992 116.89L19.4003 116.889C20.2865 116.638 21.1312 116.286 21.915 115.843L22.0364 115.774L22.0366 115.635L22.0479 109.208L22.0483 108.968H21.8085H17.3177L16.3307 106.237H27.3991V120.761H22.0329V119.792V119.44L21.7059 119.569C19.8112 120.314 17.7979 120.691 15.7053 120.691L24.2667 98.5883ZM24.2667 98.5883L24.4171 98.319C24.6565 97.8895 25.0615 97.1615 25.4067 96.5408L25.8514 95.7411L25.9384 95.5846L25.7872 95.4648L25.7863 95.4641C22.9861 93.2221 19.4058 91.9836 15.7052 91.9836C7.16152 91.9836 0.239408 98.4372 0.239408 106.335C0.239408 114.233 7.16147 120.687 15.7052 120.691L24.2667 98.5883ZM60.396 120.102L60.7099 120.004L60.396 120.102ZM60.396 120.102V91.9836H65.5788V115.829V116.089L65.8382 116.068C66.0135 116.053 66.1926 116.038 66.3754 116.024C66.762 115.995 67.16 115.98 67.5545 115.98C69.8989 115.98 72.0321 116.48 74.123 116.973L74.1231 116.973C76.1964 117.46 78.1835 117.927 80.3672 117.927C82.698 117.927 84.953 117.362 87.2535 116.205C87.4967 116.088 88.1862 115.804 89.2208 115.804C89.9248 115.804 90.6698 115.934 91.427 116.188C91.4271 116.188 91.4272 116.188 91.4274 116.188L91.8863 116.343L91.4803 116.6L91.473 116.604L91.4661 116.61C87.6079 119.456 84.0941 120.761 80.3784 120.761C78.1569 120.761 76.0713 120.304 74.0284 119.857L74.0049 119.852L60.396 120.102ZM66.4089 118.98L66.4121 118.98C66.7985 118.954 67.1931 118.939 67.5882 118.939C69.852 118.939 71.9758 119.404 74.0046 119.852L66.4089 118.98ZM66.4089 118.98C66.0438 119.01 65.6978 119.043 65.3608 119.076L65.3595 119.076M66.4089 118.98L65.3595 119.076M65.3595 119.076C63.6471 119.254 62.1682 119.547 60.7103 120.004L65.3595 119.076ZM80.2212 116.51L80.4623 116.508C82.0491 116.493 83.5697 116.198 85.104 115.602L85.1041 115.602L85.2543 115.544V105.171V104.932H85.4938H93.2357L93.404 104.926L93.4676 104.775C93.4677 104.774 93.4678 104.774 93.4679 104.774C93.5405 104.599 93.6131 104.424 93.6855 104.249C93.9383 103.639 94.1903 103.032 94.4401 102.421L94.4402 102.421L94.5701 102.105H85.5424H85.303V101.866V94.9907V94.7513H85.5424H97.8375L97.8987 94.6076L80.2212 116.51ZM80.2212 116.51V91.9836H98.982L98.65 92.7917L98.6499 92.7918L98.647 92.7989C98.401 93.3989 98.1481 94.0157 97.899 94.6068L80.2212 116.51ZM36.4507 118.028L36.4505 118.028C33.1769 115.719 31.5305 112.517 31.5451 108.492C31.5564 105.465 31.5526 99.9666 31.5489 95.3468V91.9836H36.9789L36.9899 109.597L36.9899 109.598C37.0014 111.832 37.7607 113.748 39.068 115.108C40.3761 116.47 42.2198 117.262 44.372 117.269H44.3728C47.0395 117.269 49.2878 116.495 50.8776 115.122C52.4703 113.747 53.3849 111.787 53.4022 109.455C53.4247 106.361 53.4209 98.3724 53.4135 92.214V91.9799H56.2354L56.2538 108.543L56.2538 108.545C56.2833 111.078 55.7448 113.246 54.6573 115.046C53.5699 116.846 51.9247 118.293 49.7162 119.371L49.7161 119.371C47.8895 120.264 46.0355 120.713 44.197 120.713C41.5866 120.713 38.9809 119.815 36.4507 118.028ZM94.9451 120.761L106.262 93.4223L106.263 93.4216L106.853 91.9836H111.124L123.064 120.761H117.483L116.803 119.127L116.582 119.219L116.803 119.127C116.622 118.69 116.43 118.231 116.236 117.765C115.7 116.478 115.143 115.142 114.712 114.096L114.651 113.948H114.491H100.986H100.826L100.765 114.095L97.9896 120.761H94.9451ZM113.114 111.026H113.472L113.335 110.695L107.958 97.6977L107.736 97.1632L107.515 97.6976L102.134 110.695L101.997 111.026H102.355H113.114Z" stroke="#899190" stroke-width="0.478817"/>
    <defs>
        <linearGradient id="paint0_linear" x1="61.2543" y1="120.086" x2="61.2543" y2="105.001" gradientUnits="userSpaceOnUse">
            <stop stop-color="#BA2F24"/>
            <stop offset="1" stop-color="#FF2D16"/>
        </linearGradient>
    </defs>
</svg>
