<svg width="127" height="31" viewBox="0 0 127 31" fill="none" xmlns="http://www.w3.org/2000/svg">
    <path d="M23.0437 30.3892V29.1671C21.0982 29.9323 19.0316 30.3186 16.8855 30.3186C8.12711 30.3149 1 23.6952 1 15.5562C1 7.41721 8.12711 0.797537 16.8855 0.797537C20.6819 0.797537 24.3571 2.06798 27.2337 4.37112L27.5478 4.62001C27.5478 4.62001 26.3934 6.69655 25.9089 7.5658L25.6061 8.10816L25.1481 7.68096C23.0815 5.75672 20.3639 4.69802 17.5025 4.69802C11.3708 4.69802 6.38602 9.56805 6.38602 15.5525C6.38602 21.537 11.3708 26.4107 17.5025 26.4107C18.5396 26.4107 19.5691 26.2733 20.557 25.9984C21.4351 25.7495 22.2716 25.4003 23.0475 24.962L23.0588 18.4612H18.3465L17.1732 15.2145H28.9558V30.3892H23.0437Z" fill="#FF2D16"/>
    <path d="M23.0437 30.3892V29.1671C21.0982 29.9323 19.0316 30.3186 16.8855 30.3186C8.12711 30.3149 1 23.6952 1 15.5562C1 7.41721 8.12711 0.797537 16.8855 0.797537C20.6819 0.797537 24.3571 2.06798 27.2337 4.37112L27.5478 4.62001C27.5478 4.62001 26.3934 6.69655 25.9089 7.5658L25.6061 8.10816L25.1481 7.68096C23.0815 5.75672 20.3639 4.69802 17.5025 4.69802C11.3708 4.69802 6.38602 9.56805 6.38602 15.5525C6.38602 21.537 11.3708 26.4107 17.5025 26.4107C18.5396 26.4107 19.5691 26.2733 20.557 25.9984C21.4351 25.7495 22.2716 25.4003 23.0475 24.962L23.0588 18.4612H18.3465L17.1732 15.2145H28.9558V30.3892H23.0437Z" fill="url(#paint0_linear)"/>
    <path d="M82.3012 30.3892C80.0151 30.3892 77.8728 29.9174 75.8024 29.4642C73.7472 29.011 71.6238 28.5467 69.3642 28.5467C68.9706 28.5467 68.5769 28.5615 68.1909 28.5875C67.8237 28.6173 67.4755 28.6507 67.1348 28.6841C65.4165 28.8624 63.9365 29.1559 62.4793 29.6128L61.8472 29.8097V0.797537H67.5739V25.1588C67.7518 25.144 67.9335 25.1291 68.1189 25.1143C68.5164 25.0845 68.9251 25.0697 69.3301 25.0697C71.7336 25.0697 73.9175 25.5823 76.0295 26.0801C78.1302 26.5742 80.1135 27.0385 82.2899 27.0385C84.6063 27.0385 86.8508 26.4776 89.1483 25.3223C89.417 25.1923 90.1513 24.8914 91.2451 24.8914C91.987 24.8914 92.7667 25.0288 93.554 25.2926L94.5002 25.612L93.66 26.1432C89.7274 29.0445 86.1241 30.3892 82.3012 30.3892Z" fill="#FF2D16"/>
    <path d="M82.3012 30.3892C80.0151 30.3892 77.8728 29.9174 75.8024 29.4642C73.7472 29.011 71.6238 28.5467 69.3642 28.5467C68.9706 28.5467 68.5769 28.5615 68.1909 28.5875C67.8237 28.6173 67.4755 28.6507 67.1348 28.6841C65.4165 28.8624 63.9365 29.1559 62.4793 29.6128L61.8472 29.8097V0.797537H67.5739V25.1588C67.7518 25.144 67.9335 25.1291 68.1189 25.1143C68.5164 25.0845 68.9251 25.0697 69.3301 25.0697C71.7336 25.0697 73.9175 25.5823 76.0295 26.0801C78.1302 26.5742 80.1135 27.0385 82.2899 27.0385C84.6063 27.0385 86.8508 26.4776 89.1483 25.3223C89.417 25.1923 90.1513 24.8914 91.2451 24.8914C91.987 24.8914 92.7667 25.0288 93.554 25.2926L94.5002 25.612L93.66 26.1432C89.7274 29.0445 86.1241 30.3892 82.3012 30.3892Z" fill="url(#paint1_linear)"/>
    <path d="M45.7044 30.3409C43.0057 30.3409 40.3222 29.4122 37.7294 27.5809C34.3532 25.1997 32.65 21.8862 32.6652 17.7368C32.6765 14.6758 32.6727 9.11485 32.6689 4.4417V0.797538H38.6454L38.6568 18.8549C38.6795 23.2643 41.6507 26.3587 45.8823 26.3736C51.185 26.3736 54.7391 23.294 54.7732 18.71C54.7959 15.5822 54.7921 7.50265 54.7845 1.27303V0.793823H58.1229L58.1418 17.7888C58.2024 22.9857 55.9314 26.745 51.3932 28.959C49.5159 29.8766 47.6044 30.3409 45.7044 30.3409Z" fill="#FF2D16"/>
    <path d="M45.7044 30.3409C43.0057 30.3409 40.3222 29.4122 37.7294 27.5809C34.3532 25.1997 32.65 21.8862 32.6652 17.7368C32.6765 14.6758 32.6727 9.11485 32.6689 4.4417V0.797538H38.6454L38.6568 18.8549C38.6795 23.2643 41.6507 26.3587 45.8823 26.3736C51.185 26.3736 54.7391 23.294 54.7732 18.71C54.7959 15.5822 54.7921 7.50265 54.7845 1.27303V0.793823H58.1229L58.1418 17.7888C58.2024 22.9857 55.9314 26.745 51.3932 28.959C49.5159 29.8766 47.6044 30.3409 45.7044 30.3409Z" fill="url(#paint2_linear)"/>
    <path d="M119.67 30.3892L118.921 28.5875C118.228 26.9233 117.399 24.9397 116.805 23.4983H103.145L100.276 30.3892H96.6728L108.259 2.40231L108.917 0.797537H113.561L125.84 30.3892H119.67ZM115.412 20.0585L109.973 6.91201L104.53 20.0585H115.412Z" fill="#FF2D16"/>
    <path d="M119.67 30.3892L118.921 28.5875C118.228 26.9233 117.399 24.9397 116.805 23.4983H103.145L100.276 30.3892H96.6728L108.259 2.40231L108.917 0.797537H113.561L125.84 30.3892H119.67ZM115.412 20.0585L109.973 6.91201L104.53 20.0585H115.412Z" fill="url(#paint3_linear)"/>
    <path d="M101.48 0.797537L101.007 1.94911C100.757 2.55833 100.499 3.18612 100.246 3.78791L100.121 4.08137H87.5245V11.0354H97.0172L96.7485 11.6892C96.423 12.4841 96.0937 13.2754 95.7644 14.0703L95.6395 14.3675L95.3102 14.3786H87.4753V25.0363L87.1687 25.1551C85.5904 25.7681 84.0234 26.0727 82.3883 26.0875L81.9 26.0912V0.797537H101.48Z" fill="#FF2D16"/>
    <path d="M101.48 0.797537L101.007 1.94911C100.757 2.55833 100.499 3.18612 100.246 3.78791L100.121 4.08137H87.5245V11.0354H97.0172L96.7485 11.6892C96.423 12.4841 96.0937 13.2754 95.7644 14.0703L95.6395 14.3675L95.3102 14.3786H87.4753V25.0363L87.1687 25.1551C85.5904 25.7681 84.0234 26.0727 82.3883 26.0875L81.9 26.0912V0.797537H101.48Z" fill="url(#paint4_linear)"/>
    <path d="M23.0437 30.3892V29.1671C21.0982 29.9323 19.0316 30.3186 16.8855 30.3186C8.12711 30.3149 1 23.6952 1 15.5562C1 7.41721 8.12711 0.797537 16.8855 0.797537C20.6819 0.797537 24.3571 2.06798 27.2337 4.37112L27.5478 4.62001C27.5478 4.62001 26.3934 6.69655 25.9089 7.5658L25.6061 8.10816L25.1481 7.68096C23.0815 5.75672 20.3639 4.69802 17.5025 4.69802C11.3708 4.69802 6.38602 9.56805 6.38602 15.5525C6.38602 21.537 11.3708 26.4107 17.5025 26.4107C18.5396 26.4107 19.5691 26.2733 20.557 25.9984C21.4351 25.7495 22.2716 25.4003 23.0475 24.962L23.0588 18.4612H18.3465L17.1732 15.2145H28.9558V30.3892H23.0437Z" stroke="#899190" stroke-width="0.484314"/>
    <path d="M82.3012 30.3892C80.0151 30.3892 77.8728 29.9174 75.8024 29.4642C73.7472 29.011 71.6238 28.5467 69.3642 28.5467C68.9706 28.5467 68.5769 28.5615 68.1909 28.5875C67.8237 28.6173 67.4755 28.6507 67.1348 28.6841C65.4165 28.8624 63.9365 29.1559 62.4793 29.6128L61.8472 29.8097V0.797537H67.5739V25.1588C67.7518 25.144 67.9335 25.1291 68.1189 25.1143C68.5164 25.0845 68.9251 25.0697 69.3301 25.0697C71.7336 25.0697 73.9175 25.5823 76.0295 26.0801C78.1302 26.5742 80.1135 27.0385 82.2899 27.0385C84.6063 27.0385 86.8508 26.4776 89.1483 25.3223C89.417 25.1923 90.1513 24.8914 91.2451 24.8914C91.987 24.8914 92.7667 25.0288 93.554 25.2926L94.5002 25.612L93.66 26.1432C89.7274 29.0445 86.1241 30.3892 82.3012 30.3892Z" stroke="#899190" stroke-width="0.484314"/>
    <path d="M45.7044 30.3409C43.0057 30.3409 40.3222 29.4122 37.7294 27.5809C34.3532 25.1997 32.65 21.8862 32.6652 17.7368C32.6765 14.6758 32.6727 9.11485 32.6689 4.4417V0.797538H38.6454L38.6568 18.8549C38.6795 23.2643 41.6507 26.3587 45.8823 26.3736C51.185 26.3736 54.7391 23.294 54.7732 18.71C54.7959 15.5822 54.7921 7.50265 54.7845 1.27303V0.793823H58.1229L58.1418 17.7888C58.2024 22.9857 55.9314 26.745 51.3932 28.959C49.5159 29.8766 47.6044 30.3409 45.7044 30.3409Z" stroke="#899190" stroke-width="0.484314"/>
    <path d="M119.67 30.3892L118.921 28.5875C118.228 26.9233 117.399 24.9397 116.805 23.4983H103.145L100.276 30.3892H96.6728L108.259 2.40231L108.917 0.797537H113.561L125.84 30.3892H119.67ZM115.412 20.0585L109.973 6.91201L104.53 20.0585H115.412Z" stroke="#899190" stroke-width="0.484314"/>
    <path d="M101.48 0.797537L101.007 1.94911C100.757 2.55833 100.499 3.18612 100.246 3.78791L100.121 4.08137H87.5245V11.0354H97.0172L96.7485 11.6892C96.423 12.4841 96.0937 13.2754 95.7644 14.0703L95.6395 14.3675L95.3102 14.3786H87.4753V25.0363L87.1687 25.1551C85.5904 25.7681 84.0234 26.0727 82.3883 26.0875L81.9 26.0912V0.797537H101.48Z" stroke="#899190" stroke-width="0.484314"/>
    <defs>
        <linearGradient id="paint0_linear" x1="62.9575" y1="29.4645" x2="62.9575" y2="14.2063" gradientUnits="userSpaceOnUse">
            <stop stop-color="#BA2F24"/>
            <stop offset="1" stop-color="#FF2D16"/>
        </linearGradient>
        <linearGradient id="paint1_linear" x1="62.9575" y1="29.4645" x2="62.9575" y2="14.2063" gradientUnits="userSpaceOnUse">
            <stop stop-color="#BA2F24"/>
            <stop offset="1" stop-color="#FF2D16"/>
        </linearGradient>
        <linearGradient id="paint2_linear" x1="62.9575" y1="29.4645" x2="62.9575" y2="14.2063" gradientUnits="userSpaceOnUse">
            <stop stop-color="#BA2F24"/>
            <stop offset="1" stop-color="#FF2D16"/>
        </linearGradient>
        <linearGradient id="paint3_linear" x1="62.9575" y1="29.4645" x2="62.9575" y2="14.2063" gradientUnits="userSpaceOnUse">
            <stop stop-color="#BA2F24"/>
            <stop offset="1" stop-color="#FF2D16"/>
        </linearGradient>
        <linearGradient id="paint4_linear" x1="62.9575" y1="29.4645" x2="62.9575" y2="14.2063" gradientUnits="userSpaceOnUse">
            <stop stop-color="#BA2F24"/>
            <stop offset="1" stop-color="#FF2D16"/>
        </linearGradient>
    </defs>
</svg>
